<?xml version="1.0" standalone="no"?>
<!DOCTYPE svg PUBLIC "-//W3C//DTD SVG 20010904//EN"
 "http://www.w3.org/TR/2001/REC-SVG-20010904/DTD/svg10.dtd">
<svg version="1.0" xmlns="http://www.w3.org/2000/svg"
 width="512.000000pt" height="512.000000pt" viewBox="0 0 512.000000 512.000000"
 preserveAspectRatio="xMidYMid meet">

<g transform="translate(0.000000,512.000000) scale(0.100000,-0.100000)"
fill="#000000" stroke="none">
<path d="M354 3087 c-2 -7 -3 -100 -2 -207 3 -186 4 -195 23 -198 11 -2 55
-17 97 -34 l78 -31 2 -211 3 -210 215 -48 c118 -27 258 -58 310 -69 52 -11
117 -27 144 -35 34 -9 98 -14 201 -14 l152 0 -4 24 c-3 13 -1 26 4 29 10 7 75
-12 135 -37 28 -12 72 -16 183 -16 l145 0 0 55 c0 30 3 55 6 55 8 0 121 -68
153 -92 20 -15 45 -18 162 -18 l139 0 0 30 c0 17 4 30 8 30 4 0 16 -13 25 -30
l18 -30 138 0 137 0 15 48 15 47 96 3 96 3 18 -51 18 -50 287 0 c285 0 287 0
341 25 66 31 71 31 88 0 l13 -25 163 0 c130 0 174 4 225 19 35 11 178 48 316
83 139 34 253 67 253 71 0 5 -79 108 -175 229 l-175 220 67 87 c37 47 89 115
116 151 28 36 72 93 99 126 26 34 48 67 48 73 0 8 -66 11 -222 11 l-223 -1
-55 -66 c-30 -37 -59 -68 -65 -69 -5 -2 -34 28 -64 66 l-54 70 -223 0 c-219 0
-224 0 -224 -20 0 -12 -41 -88 -91 -171 -107 -175 -86 -181 -164 49 l-48 142
-291 0 -291 0 -68 -198 c-175 -506 -166 -485 -166 -365 -1 54 -7 108 -15 130
-34 90 -126 391 -126 411 0 22 -1 22 -202 21 l-203 0 -70 -84 c-38 -47 -73
-85 -77 -85 -4 0 -40 38 -80 85 l-73 85 -202 0 -203 0 0 -46 0 -46 -40 32
c-22 17 -40 38 -40 46 0 20 -808 21 -816 1z m796 -197 l0 -190 -100 0 -100 0
0 -250 0 -250 -167 0 c-93 0 -178 3 -190 6 l-23 6 0 244 0 244 -100 0 -100 0
0 190 0 190 390 0 390 0 0 -190z m576 100 c42 -49 78 -90 79 -90 2 0 38 41 81
90 l78 90 193 0 193 0 -2 -437 -3 -438 -190 0 -190 0 -5 224 -5 225 -69 -82
c-38 -45 -73 -82 -77 -82 -4 0 -39 36 -76 79 -37 44 -71 80 -75 80 -5 1 -8
-100 -8 -224 l0 -225 -190 0 -190 0 0 440 0 440 189 0 190 0 77 -90z m1626
-48 c26 -75 76 -220 112 -322 35 -102 82 -236 104 -298 26 -77 35 -115 28
-118 -7 -3 -93 -3 -191 -2 l-180 3 -26 75 -25 75 -148 0 -149 0 -26 -75 -26
-75 -187 -3 c-156 -2 -188 0 -188 12 0 7 30 99 66 202 100 288 163 469 197
572 l31 92 281 0 280 0 47 -138z m745 91 c20 -27 50 -63 65 -80 l27 -33 62 80
61 80 204 0 c112 0 204 -2 204 -5 0 -3 -27 -40 -60 -83 -33 -42 -105 -136
-161 -209 l-100 -131 168 -212 c92 -116 168 -217 168 -223 0 -9 -56 -13 -197
-15 l-197 -2 -72 90 c-40 49 -75 90 -78 89 -3 0 -37 -40 -75 -90 l-69 -89
-203 0 c-112 0 -204 2 -204 5 0 4 93 126 292 382 l48 63 -146 187 c-81 104
-158 200 -172 216 l-26 27 211 0 212 0 38 -47z"/>
<path d="M2992 2693 c-52 -147 -55 -133 32 -133 42 0 76 3 76 6 0 12 -63 200
-70 207 -4 5 -21 -31 -38 -80z"/>
</g>
</svg>
